<svg width="500" height="500" viewBox="0 0 500 500" fill="none" xmlns="http://www.w3.org/2000/svg">
<rect width="500" height="500" rx="16" fill="white"/>
<path d="M156.4 100.256H326C331.623 100.256 337.015 102.496 340.991 106.482C344.966 110.468 347.2 115.875 347.2 121.512V228.261C354.493 228.927 361.559 230.238 368.4 232.193V121.512C368.4 110.237 363.933 99.4242 355.981 91.4516C348.03 83.479 337.245 79 326 79H156.4C145.155 79 134.37 83.479 126.419 91.4516C118.467 99.4242 114 110.237 114 121.512V376.587C114 387.862 118.467 398.675 126.419 406.648C134.37 414.62 145.155 419.099 156.4 419.099H246.648C241.248 412.543 236.578 405.415 232.72 397.843H156.4C150.777 397.843 145.385 395.604 141.409 391.617C137.434 387.631 135.2 382.224 135.2 376.587H224.388C222.429 369.638 221.116 362.522 220.466 355.331H135.2V121.512C135.2 115.875 137.434 110.468 141.409 106.482C145.385 102.496 150.777 100.256 156.4 100.256ZM177.6 121.512C171.977 121.512 166.585 123.752 162.609 127.738C158.634 131.725 156.4 137.131 156.4 142.769V164.025C156.4 169.662 158.634 175.069 162.609 179.055C166.585 183.042 171.977 185.281 177.6 185.281H304.8C310.423 185.281 315.815 183.042 319.791 179.055C323.766 175.069 326 169.662 326 164.025V142.769C326 137.131 323.766 131.725 319.791 127.738C315.815 123.752 310.423 121.512 304.8 121.512H177.6ZM304.8 142.769V164.025H177.6V142.769H304.8ZM432 344.703C432 370.071 421.949 394.401 404.058 412.339C386.167 430.278 361.902 440.355 336.6 440.355C311.298 440.355 287.033 430.278 269.142 412.339C251.251 394.401 241.2 370.071 241.2 344.703C241.2 319.334 251.251 295.004 269.142 277.066C287.033 259.127 311.298 249.05 336.6 249.05C361.902 249.05 386.167 259.127 404.058 277.066C421.949 295.004 432 319.334 432 344.703ZM326.424 302.913C325.051 301.962 323.453 301.389 321.791 301.251C320.128 301.113 318.458 301.415 316.948 302.126C315.717 302.675 314.602 303.454 313.662 304.422C312.674 305.42 311.894 306.605 311.366 307.907C310.839 309.21 310.574 310.605 310.588 312.01V377.373C310.571 378.783 310.834 380.181 311.362 381.488C311.89 382.794 312.672 383.982 313.662 384.983C314.639 385.936 315.763 386.726 316.99 387.321C319.141 388.309 321.581 388.461 323.838 387.746C324.817 387.429 325.746 386.971 326.594 386.386L375.269 353.077C376.749 352.098 377.942 350.741 378.724 349.145C379.523 347.535 379.934 345.76 379.923 343.962C379.912 342.164 379.479 340.393 378.661 338.793C377.822 337.227 376.605 335.897 375.12 334.925L326.424 302.913Z" fill="#0E7F5D"/>
</svg>
