<svg width="32" height="32" viewBox="0 0 32 32" fill="none" xmlns="http://www.w3.org/2000/svg">
<g clip-path="url(#clip0_1_253)">
<g clip-path="url(#clip1_1_253)">
<path d="M16.877 2.43942C16.8743 1.74517 16.3094 1.18454 15.6151 1.1872C14.9209 1.18987 14.3602 1.75484 14.3629 2.44909L14.4686 29.9348C14.4713 30.629 15.0362 31.1897 15.7305 31.187C16.4247 31.1843 16.9854 30.6194 16.9827 29.9251L16.877 2.43942Z" fill="#F2C413"/>
<path d="M29.4205 17.3912C30.1147 17.3885 30.6754 16.8236 30.6726 16.1293C30.6699 15.4351 30.105 14.8744 29.4107 14.8771L1.92507 14.9828C1.23083 14.9855 0.670192 15.5504 0.672861 16.2447C0.675531 16.9389 1.24049 17.4996 1.93474 17.4969L29.4205 17.3912Z" fill="#F2C413"/>
<path d="M24.5427 26.7607C25.0354 27.2498 25.8314 27.2467 26.3204 26.7539C26.8094 26.2611 26.8063 25.4652 26.3135 24.9762L6.80345 5.61557C6.31065 5.12655 5.51473 5.12961 5.02572 5.6224C4.5367 6.1152 4.53976 6.91112 5.03255 7.40013L24.5427 26.7607Z" fill="#F2C413"/>
<path d="M5.10122 25.0569C4.6122 25.5496 4.61526 26.3456 5.10806 26.8346C5.60085 27.3236 6.39677 27.3205 6.88579 26.8277L26.2463 7.31773C26.7354 6.82494 26.7323 6.02902 26.2395 5.54C25.7467 5.05098 24.9508 5.05404 24.4618 5.54684L5.10122 25.0569Z" fill="#F2C413"/>
</g>
</g>
<defs>
<clipPath id="clip0_1_253">
<rect width="30.9977" height="30.9977" fill="white" transform="translate(0.487244 0.244873)"/>
</clipPath>
<clipPath id="clip1_1_253">
<rect width="31" height="31" fill="white" transform="translate(0.487244 0.244873)"/>
</clipPath>
</defs>
</svg>
