<svg width="235" height="42" viewBox="0 0 235 42" fill="none" xmlns="http://www.w3.org/2000/svg">
<path d="M16.2 31.1V27.5H14.4V14.9H16.2V11.3H9V14.9H10.8V27.5H9V31.1H16.2ZM0 36.5V5.9H25.2V36.5H0ZM43.2 31.1V27.5H41.4V14.9H43.2V11.3H36V14.9H37.8V27.5H36V31.1H43.2ZM27 36.5V5.9H52.2V36.5H27ZM70.2 31.1V27.5H68.4V14.9H70.2V11.3H63V14.9H64.8V27.5H63V31.1H70.2ZM54 36.5V5.9H79.2V36.5H54ZM95.4 31.1V14.9H100.8V11.3H86.4V14.9H91.8V31.1H95.4ZM81 36.5V5.9H106.2V36.5H81Z" fill="#013928"/>
<path d="M125.02 20.976C126.121 21.1813 127.027 21.732 127.736 22.628C128.445 23.524 128.8 24.5507 128.8 25.708C128.8 26.7533 128.539 27.6773 128.016 28.48C127.512 29.264 126.775 29.88 125.804 30.328C124.833 30.776 123.685 31 122.36 31H113.932V11.456H121.996C123.321 11.456 124.46 11.6707 125.412 12.1C126.383 12.5293 127.111 13.1267 127.596 13.892C128.1 14.6573 128.352 15.5253 128.352 16.496C128.352 17.6347 128.044 18.5867 127.428 19.352C126.831 20.1173 126.028 20.6587 125.02 20.976ZM117.852 19.52H121.436C122.369 19.52 123.088 19.3147 123.592 18.904C124.096 18.4747 124.348 17.868 124.348 17.084C124.348 16.3 124.096 15.6933 123.592 15.264C123.088 14.8347 122.369 14.62 121.436 14.62H117.852V19.52ZM121.8 27.808C122.752 27.808 123.489 27.584 124.012 27.136C124.553 26.688 124.824 26.0533 124.824 25.232C124.824 24.392 124.544 23.7387 123.984 23.272C123.424 22.7867 122.668 22.544 121.716 22.544H117.852V27.808H121.8ZM140.66 15.264C141.836 15.264 142.882 15.5253 143.796 16.048C144.711 16.552 145.42 17.308 145.924 18.316C146.447 19.3053 146.708 20.5 146.708 21.9V31H142.788V22.432C142.788 21.2 142.48 20.2573 141.864 19.604C141.248 18.932 140.408 18.596 139.344 18.596C138.262 18.596 137.403 18.932 136.768 19.604C136.152 20.2573 135.844 21.2 135.844 22.432V31H131.924V10.28H135.844V17.42C136.348 16.748 137.02 16.2253 137.86 15.852C138.7 15.46 139.634 15.264 140.66 15.264ZM161.028 27.892H167.468V31H157.108V11.456H161.028V27.892ZM184.379 22.908C184.379 23.468 184.342 23.972 184.267 24.42H172.927C173.021 25.54 173.413 26.4173 174.103 27.052C174.794 27.6867 175.643 28.004 176.651 28.004C178.107 28.004 179.143 27.3787 179.759 26.128H183.987C183.539 27.6213 182.681 28.8533 181.411 29.824C180.142 30.776 178.583 31.252 176.735 31.252C175.242 31.252 173.898 30.9253 172.703 30.272C171.527 29.6 170.603 28.6573 169.931 27.444C169.278 26.2307 168.951 24.8307 168.951 23.244C168.951 21.6387 169.278 20.2293 169.931 19.016C170.585 17.8027 171.499 16.8693 172.675 16.216C173.851 15.5627 175.205 15.236 176.735 15.236C178.21 15.236 179.526 15.5533 180.683 16.188C181.859 16.8227 182.765 17.728 183.399 18.904C184.053 20.0613 184.379 21.396 184.379 22.908ZM180.319 21.788C180.301 20.78 179.937 19.9773 179.227 19.38C178.518 18.764 177.65 18.456 176.623 18.456C175.653 18.456 174.831 18.7547 174.159 19.352C173.506 19.9307 173.105 20.7427 172.955 21.788H180.319ZM186.233 23.188C186.233 21.62 186.541 20.2293 187.157 19.016C187.791 17.8027 188.641 16.8693 189.705 16.216C190.787 15.5627 191.991 15.236 193.317 15.236C194.474 15.236 195.482 15.4693 196.341 15.936C197.218 16.4027 197.918 16.9907 198.441 17.7V15.488H202.389V31H198.441V28.732C197.937 29.46 197.237 30.0667 196.341 30.552C195.463 31.0187 194.446 31.252 193.289 31.252C191.982 31.252 190.787 30.916 189.705 30.244C188.641 29.572 187.791 28.6293 187.157 27.416C186.541 26.184 186.233 24.7747 186.233 23.188ZM198.441 23.244C198.441 22.292 198.254 21.48 197.881 20.808C197.507 20.1173 197.003 19.5947 196.369 19.24C195.734 18.8667 195.053 18.68 194.325 18.68C193.597 18.68 192.925 18.8573 192.309 19.212C191.693 19.5667 191.189 20.0893 190.797 20.78C190.423 21.452 190.237 22.2547 190.237 23.188C190.237 24.1213 190.423 24.9427 190.797 25.652C191.189 26.3427 191.693 26.8747 192.309 27.248C192.943 27.6213 193.615 27.808 194.325 27.808C195.053 27.808 195.734 27.6307 196.369 27.276C197.003 26.9027 197.507 26.38 197.881 25.708C198.254 25.0173 198.441 24.196 198.441 23.244ZM210.137 17.896C210.641 17.0747 211.294 16.4307 212.097 15.964C212.918 15.4973 213.852 15.264 214.897 15.264V19.38H213.861C212.629 19.38 211.696 19.6693 211.061 20.248C210.445 20.8267 210.137 21.8347 210.137 23.272V31H206.217V15.488H210.137V17.896ZM226.133 15.264C227.981 15.264 229.475 15.852 230.613 17.028C231.752 18.1853 232.321 19.8093 232.321 21.9V31H228.401V22.432C228.401 21.2 228.093 20.2573 227.477 19.604C226.861 18.932 226.021 18.596 224.957 18.596C223.875 18.596 223.016 18.932 222.381 19.604C221.765 20.2573 221.457 21.2 221.457 22.432V31H217.537V15.488H221.457V17.42C221.98 16.748 222.643 16.2253 223.445 15.852C224.267 15.46 225.163 15.264 226.133 15.264Z" fill="#0E7F5D"/>
</svg>
